<?xml version="1.0" encoding="utf-8"?>
<!-- Svg Vector Icons : http://www.onlinewebfonts.com/icon -->
<!DOCTYPE svg PUBLIC "-//W3C//DTD SVG 1.1//EN" "http://www.w3.org/Graphics/SVG/1.1/DTD/svg11.dtd">
<svg version="1.1" x="0px" y="0px" viewBox="0 0 1000 1000" enable-background="new 0 0 1000 1000" xml:space="preserve">
<g><g transform="matrix(1 0 0 -1 0 1952)"><path d="M646.8,1777.2l-293.5,0l-2,129.9c0,0-2.1,34.9-32.6,34.9c0,0-32.8-1.7-30.8-34.3c0,0,0.9-115.6-0.3-153c-18.9-17.8-32.1-43.2-32.1-71.2v-623.7c0-54,43.8-97.8,97.8-97.8h293.5c54,0,97.8,43.8,97.8,97.8v619.6C744.6,1733.4,700.8,1777.2,646.8,1777.2L646.8,1777.2z M418.5,1027.2h-97.8v65.2h97.8C418.5,1092.4,418.5,1027.2,418.5,1027.2z M418.5,1125h-97.8v65.2h97.8V1125z M418.5,1222.9h-97.8v65.2h97.8V1222.9z M418.5,1320.7h-97.8v65.2h97.8V1320.7z M548.9,1027.2h-97.8v65.2h97.8C548.9,1092.4,548.9,1027.2,548.9,1027.2z M548.9,1125h-97.8v65.2h97.8V1125z M548.9,1222.9h-97.8v65.2h97.8V1222.9z M548.9,1320.7h-97.8v65.2h97.8V1320.7z M679.4,1027.2h-97.8v65.2h97.8C679.4,1092.4,679.4,1027.2,679.4,1027.2z M679.4,1125h-97.8v65.2h97.8V1125z M679.4,1222.9h-97.8v65.2h97.8V1222.9z M679.4,1320.7h-97.8v65.2h97.8V1320.7z M679.4,1483.7c0-18-14.6-32.6-32.6-32.6H353.3c-18,0-32.6,14.6-32.6,32.6v197c0,18,14.6,32.6,32.6,32.6h293.5c18,0,32.6-14.6,32.6-32.6V1483.7L679.4,1483.7z"/></g></g>
</svg>
